<?xml version="1.0" standalone="no"?><!DOCTYPE svg PUBLIC "-//W3C//DTD SVG 1.1//EN" "http://www.w3.org/Graphics/SVG/1.1/DTD/svg11.dtd"><svg t="1555058824119" class="icon" style="" viewBox="0 0 1024 1024" version="1.1" xmlns="http://www.w3.org/2000/svg" p-id="2047" xmlns:xlink="http://www.w3.org/1999/xlink" width="200" height="200"><defs><style type="text/css"></style></defs><path d="M512.256 70.4l479.36 191.744v64.512H928c0 8.368-3.28 15.84-9.856 22.4-6.56 6.56-14.64 9.552-24.192 8.96H130.56c-9.552 0-17.616-2.992-24.192-8.96a32.064 32.064 0 0 1-10.752-22.4H32v-64.512L512.256 70.4zM160.128 390.272h128.128v384.384h63.616V390.272H480v384.384h63.616V390.272h128.128v384.384h64.512V390.272h128.128v384.384h29.568a36.8 36.8 0 0 1 24.192 8.96c7.168 5.968 10.448 13.44 9.856 22.4v32.256H95.616v-32.256c0-8.368 3.584-15.84 10.752-22.4 7.168-6.56 15.232-9.552 24.192-8.96h29.568V390.272z m797.44 480.256c9.552 0 17.616 3.28 24.192 9.856 6.56 6.56 9.856 14.032 9.856 22.4V966.4H32v-63.616c0-8.96 3.28-16.432 9.856-22.4 6.56-5.968 14.928-9.264 25.088-9.856h890.624z" p-id="2048"></path></svg>