<?xml version="1.0" standalone="no"?><!DOCTYPE svg PUBLIC "-//W3C//DTD SVG 1.1//EN" "http://www.w3.org/Graphics/SVG/1.1/DTD/svg11.dtd"><svg t="1555058916955" class="icon" style="" viewBox="0 0 1024 1024" version="1.1" xmlns="http://www.w3.org/2000/svg" p-id="5865" xmlns:xlink="http://www.w3.org/1999/xlink" width="200" height="200"><defs><style type="text/css"></style></defs><path d="M349.234646 603.769121v135.413036c14.674296-11.841815 33.102481-25.697081 50.506879-40.61026 19.281342-16.551241 38.221421-23.820136 65.795447-18.56469a248.302735 248.302735 0 0 0 92.140926 0c27.539899-5.255445 46.957746 1.501556 65.727195 18.598816 17.063135 15.356821 33.989764 30.747769 52.247318 47.162504V603.223101c46.821241 14.333033 92.140927 23.478873 133.36546 41.736427 68.320791 30.440632 99.409822 92.48219 119.851457 160.427592 3.890395 13.036235 4.436415 27.232763 7.268896 40.61026 7.610158 35.286562-5.562582 64.055007-36.344477 77.910272-45.968085 20.817024-93.471851 40.917397-142.477174 52.042561-179.708934 40.951523-359.588499 36.03734-537.591118-11.978321-33.648501-9.14584-66.273215-24.673293-97.362247-40.746765-28.393056-14.708422-40.576134-40.405503-36.344476-73.712741 7.780789-62.553451 29.758107-118.657038 72.34769-165.512406 23.854262-26.174848 53.23698-42.418953 88.250533-50.336247 33.648501-7.610158 66.102583-19.110711 102.617691-29.928738z m332.492241-191.209486c-2.047576 35.150057-8.941083 64.737533-33.955638 89.069562-8.463315 8.32681-8.122052 27.232763-9.14584 41.634049-3.549132 52.383823-58.663057 117.291987-110.705617 124.731514-17.74566 2.525344-39.415841 0.511894-54.772662-7.78079-48.698186-26.516111-91.117139-58.833688-89.069563-124.219619 0.477768-15.902841-12.524341-32.146946-18.974206-48.186293-9.452977-23.342368-18.598817-46.855368-29.075581-72.859584-20.782898 3.207869-41.736427-2.55947-49.175954-30.611264-8.463315-31.942188-22.182075-63.713745 7.439527-93.983745 5.733213-5.937971 3.890395-21.977317 1.842818-32.624714-13.855265-73.030216 4.743551-137.255855 52.895717-192.369779C402.676384 4.307076 471.645574-4.634006 549.24871 2.122995c135.071773 11.671184 202.505281 150.121458 176.978832 260.997707-3.071364 13.036235-3.071364 21.840812 8.463315 35.354815 23.820136 27.881162 10.647396 61.870926-1.023788 92.959957-8.633946 23.001105-27.198637 26.379606-51.87193 21.158287z" fill="#2c2c2c" p-id="5866"></path></svg>